<svg width="64" height="10" viewBox="0 0 64 10" fill="none" xmlns="http://www.w3.org/2000/svg">
<mask id="mask0_19_27" style="mask-type:alpha" maskUnits="userSpaceOnUse" x="45" y="0" width="19" height="10">
<path d="M63.8625 2.124H62.1465V7.548H63.8625V9H58.4625V7.548H60.1785V2.124H58.4625V0.684H63.8625V2.124Z" fill="#7D67C1"/>
<path d="M52.7312 7.2L52.2992 9H50.2352L52.7792 0.684H55.1672L57.7112 9H55.5992L55.1672 7.2H52.7312ZM54.8432 5.784L53.9432 2.1L53.0432 5.784H54.8432Z" fill="#7D67C1"/>
<path d="M46.7719 9.132C46.3559 9.132 46.0599 9.044 45.8839 8.868C45.7079 8.692 45.6199 8.476 45.6199 8.22V7.86C45.6199 7.604 45.7079 7.388 45.8839 7.212C46.0599 7.036 46.3559 6.948 46.7719 6.948C47.1879 6.948 47.4839 7.036 47.6599 7.212C47.8359 7.388 47.9239 7.604 47.9239 7.86V8.22C47.9239 8.476 47.8359 8.692 47.6599 8.868C47.4839 9.044 47.1879 9.132 46.7719 9.132Z" fill="#7D67C1"/>
</mask>
<g mask="url(#mask0_19_27)">
<rect x="45" y="-3" width="24" height="18" fill="url(#paint0_linear_19_27)"/>
</g>
<path d="M42.6006 9H36.5526V7.62L40.7166 1.92H36.6966V0.624H42.4446V2.004L38.2926 7.704H42.6006V9Z" fill="white"/>
<path d="M31.0973 0.624V5.844C31.0973 6.156 31.1053 6.436 31.1213 6.684C31.1453 6.932 31.1973 7.144 31.2773 7.32C31.3653 7.488 31.4933 7.62 31.6613 7.716C31.8373 7.812 32.0773 7.86 32.3813 7.86C32.6853 7.86 32.9213 7.812 33.0893 7.716C33.2653 7.62 33.3933 7.488 33.4733 7.32C33.5613 7.144 33.6133 6.932 33.6293 6.684C33.6533 6.436 33.6653 6.156 33.6653 5.844V0.624H35.2373V5.604C35.2373 6.196 35.2013 6.712 35.1293 7.152C35.0573 7.592 34.9173 7.96 34.7093 8.256C34.5013 8.552 34.2093 8.776 33.8333 8.928C33.4653 9.072 32.9813 9.144 32.3813 9.144C31.7813 9.144 31.2933 9.072 30.9173 8.928C30.5493 8.776 30.2613 8.552 30.0533 8.256C29.8453 7.96 29.7053 7.592 29.6333 7.152C29.5613 6.712 29.5253 6.196 29.5253 5.604V0.624H31.0973Z" fill="white"/>
<path d="M22.4619 0.624H25.0659C26.1539 0.624 26.9619 0.984 27.4899 1.704C28.0259 2.424 28.2939 3.46 28.2939 4.812C28.2939 6.172 28.0259 7.212 27.4899 7.932C26.9619 8.644 26.1539 9 25.0659 9H22.4619V0.624ZM24.9579 7.74C25.5339 7.74 25.9579 7.552 26.2299 7.176C26.5099 6.8 26.6499 6.252 26.6499 5.532V4.08C26.6499 3.368 26.5099 2.824 26.2299 2.448C25.9579 2.072 25.5339 1.884 24.9579 1.884H24.0099V7.74H24.9579Z" fill="white"/>
<path d="M19.7786 9L19.1906 6.876H16.7066L16.1306 9H14.5466L16.8986 0.624H19.0826L21.4466 9H19.7786ZM18.0026 2.172H17.9066L16.9826 5.592H18.9266L18.0026 2.172Z" fill="white"/>
<path d="M9.72727 9H8.15527V0.624H11.3353C12.1513 0.624 12.7753 0.856 13.2073 1.32C13.6393 1.784 13.8553 2.416 13.8553 3.216C13.8553 3.832 13.7113 4.352 13.4233 4.776C13.1433 5.192 12.7393 5.456 12.2113 5.568L13.9993 9H12.2713L10.6753 5.748H9.72727V9ZM11.0113 4.524C11.4353 4.524 11.7393 4.44 11.9233 4.272C12.1073 4.096 12.1993 3.82 12.1993 3.444V2.988C12.1993 2.612 12.1073 2.34 11.9233 2.172C11.7393 1.996 11.4353 1.908 11.0113 1.908H9.72727V4.524H11.0113Z" fill="white"/>
<path d="M4.38005 1.92V9H2.82005V1.92H0.300049V0.624H6.90005V1.92H4.38005Z" fill="white"/>
<defs>
<linearGradient id="paint0_linear_19_27" x1="45" y1="6" x2="69" y2="6" gradientUnits="userSpaceOnUse">
<stop stop-color="#C6EF90"/>
<stop offset="0.473333" stop-color="#EBB76E"/>
<stop offset="1" stop-color="#CB755B"/>
</linearGradient>
</defs>
</svg>
